<svg width="739.51001" height="820" xmlns="http://www.w3.org/2000/svg">
 <metadata id="metadata4562">image/svg+xml</metadata>

 <g>
  <title>background</title>
  <rect fill="none" id="canvas_background" height="402" width="582" y="-1" x="-1"/>
 </g>
 <g>
  <title>Layer 1</title>
  <g id="layer1">
   <g id="g2640">
    <g id="g5175">
     <path fill="#ffffff" fill-rule="evenodd" stroke-width="3.7" stroke-linecap="round" stroke-miterlimit="3.7" id="path3581" d="m600.685486,644.435059c-1.026917,0 -1.859375,0.832458 -1.859375,1.859375c0,1.026917 0.832458,1.859375 1.859375,1.859375c9.275024,-0.015015 17.077576,1.883545 22.40625,5.40625c5.328674,3.522705 8.32135,8.48584 8.3125,15.40625c-0.0177,13.840759 -13.07373,35.842346 -47.96875,64.4375c-0.579346,0.39502 -0.885559,1.083618 -0.790894,1.778442c0.094666,0.694763 0.573975,1.276306 1.237915,1.501953c0.663879,0.225647 1.398315,0.05658 1.896729,-0.436646c35.254395,-28.889709 49.291931,-51.178894 49.3125,-67.25c0.010254,-8.035522 -3.750977,-14.441406 -9.9375,-18.53125c-6.186523,-4.089844 -14.68988,-6.047058 -24.46875,-6.03125z"/>
     <path fill="#ffffff" fill-rule="evenodd" stroke="#000000" stroke-width="0.8pt" marker-start="none" id="path5181" d="m583.618591,646.322937l25.580017,-14.841431l0.047913,29.599976l-25.62793,-14.758545z"/>
    </g>
    <g id="g5167">
     <path fill="#ffffff" fill-rule="evenodd" stroke-width="3.7" stroke-linecap="round" stroke-miterlimit="3.7" id="path3583" d="m602.591736,457.310089c-0.682434,0.012878 -1.302368,0.400452 -1.612793,1.008362c-0.310425,0.607849 -0.260986,1.33728 0.128662,1.897705c0.389648,0.560425 1.056213,0.860779 1.734131,0.781433c8.523926,-0.56665 25.763428,5.924316 42.65625,19c16.892822,13.075684 33.660828,32.583221 42.5,57.624969c8.839172,25.041748 9.839172,55.626526 -4.90625,91.1875c-14.745422,35.560974 -45.295593,76.09845 -99.65625,120.6875c-0.793884,0.647217 -0.912842,1.815491 -0.265625,2.609375c0.647217,0.793884 1.815491,0.912842 2.609375,0.265625c54.684937,-44.855103 85.661987,-85.844421 100.71875,-122.15625c15.056763,-36.311829 14.126343,-67.957336 5,-93.8125c-9.126343,-25.855133 -26.353943,-45.902679 -43.71875,-59.343719c-17.364807,-13.44104 -34.637451,-20.451355 -45.1875,-19.75z"/>
     <path fill="#ffffff" fill-rule="evenodd" stroke="#000000" stroke-width="0.8pt" marker-start="none" id="path5173" d="m585.668335,460.296906l24.565918,-16.465759l1.963379,29.53479l-26.529297,-13.069031z"/>
    </g>
    <g id="g5159">
     <path fill="#ffffff" fill-rule="evenodd" stroke-width="3.7" stroke-linecap="round" stroke-miterlimit="3.7" id="path3585" d="m602.560486,324.497589c-1.026917,0.025879 -1.838379,0.879364 -1.8125,1.90625c0.025879,1.026886 0.879333,1.838379 1.90625,1.8125c16.013733,0.473206 41.705078,14.866638 65.96875,39.75c24.263672,24.883362 47.27179,60.090546 59.03125,101.75c23.518921,83.318878 2.428101,192.479523 -144.15625,297.812469c-0.578552,0.368347 -0.905884,1.02655 -0.850525,1.710144c0.055359,0.683655 0.484375,1.280518 1.114746,1.550964c0.63031,0.270386 1.358459,0.169861 1.892029,-0.261108c147.43512,-105.944336 169.470398,-217.115662 145.5625,-301.812469c-11.953979,-42.348419 -35.2724,-78.048737 -59.9375,-103.34375c-24.6651,-25.295013 -50.498413,-40.342133 -68.53125,-40.875c-0.062439,-0.003174 -0.125061,-0.003174 -0.1875,0l0,0z"/>
     <path fill="#ffffff" fill-rule="evenodd" stroke="#000000" stroke-width="0.8pt" marker-start="none" id="path5165" d="m585.625977,325.856659l26.030029,-14.037262l-0.874329,29.587067l-25.155701,-15.549805z"/>
    </g>
   </g>
   <g id="g2592">
    <rect fill="#ffffff" fill-rule="evenodd" stroke="#000000" stroke-width="1px" id="rect2160" y="18.5" x="149.092006" height="100.60824" width="434.62759"/>
    <rect fill="#ffffff" fill-rule="evenodd" stroke="#000000" stroke-width="1px" id="rect3149" y="123.895321" x="149.092006" height="100.60824" width="434.62759"/>
    <rect fill="#ffffff" fill-rule="evenodd" stroke="#000000" stroke-width="1px" id="rect3151" y="697.054531" x="149.092006" height="100.60824" width="434.62759"/>
    <rect fill="#ffffff" fill-rule="evenodd" stroke="#000000" stroke-width="1.259552px" id="rect3153" y="229.420431" x="149.221786" height="159.70755" width="434.36804"/>
    <rect fill="#ffffff" fill-rule="evenodd" stroke="#000000" stroke-width="1.117361px" id="rect3155" y="394.103541" x="149.150686" height="125.64294" width="434.51022"/>
    <rect fill="#ffffff" fill-rule="evenodd" stroke="#000000" stroke-width="1.05325px" id="rect3157" y="580.618921" x="149.118636" height="111.62189" width="434.57434"/>
    <text font-size="36px" font-style="normal" font-weight="normal" text-anchor="middle" font-family="Bitstream Vera Sans" xml:space="preserve" id="text5129" y="558.618861" x="365.518866">
     <tspan id="tspan5131" y="558.618861" x="365.518866">...</tspan>
    </text>
    <text font-size="36px" font-style="normal" font-weight="normal" text-anchor="middle" font-family="Bitstream Vera Sans" xml:space="preserve" id="text5133" y="647.412681" x="363.164896">
     <tspan id="tspan5135" y="647.412681" x="363.164896">.data</tspan>
    </text>
    <text font-size="36px" font-style="normal" font-weight="normal" text-anchor="middle" font-family="Bitstream Vera Sans" xml:space="preserve" id="text5137" y="467.907801" x="363.164896">
     <tspan id="tspan5139" y="467.907801" x="363.164896">.rodata</tspan>
    </text>
    <text font-size="36px" font-style="normal" font-weight="normal" text-anchor="middle" font-family="Bitstream Vera Sans" xml:space="preserve" id="text5141" y="322.574121" x="361.827006">
     <tspan id="tspan5143" y="322.574121" x="361.827006">.text</tspan>
    </text>
    <text font-size="36px" font-style="normal" font-weight="normal" text-anchor="middle" font-family="Bitstream Vera Sans" xml:space="preserve" id="text5145" y="179.145801" x="378.033276">
     <tspan id="tspan5147" y="179.145801" x="378.033276">Program header table</tspan>
    </text>
    <text font-size="36px" font-style="normal" font-weight="normal" text-anchor="middle" font-family="Bitstream Vera Sans" xml:space="preserve" id="text5149" y="79.787011" x="361.534036">
     <tspan id="tspan5151" y="79.787011" x="361.534036">ELF header</tspan>
    </text>
    <text font-size="36px" font-style="normal" font-weight="normal" text-anchor="middle" font-family="Bitstream Vera Sans" xml:space="preserve" id="text5153" y="762.239281" x="363.223486">
     <tspan id="tspan5155" y="762.239281" x="363.223486">Section header table</tspan>
    </text>
   </g>
   <g font-size="40px" id="g2628">
    <g id="g5191">
     <path fill="#ffffff" fill-rule="evenodd" stroke-width="3.7" stroke-linecap="round" stroke-miterlimit="3.7" id="path4760" d="m145.654251,152.323929c-0.417175,0.024689 -0.813705,0.189911 -1.125,0.46875c-145.236637,125.064896 -158.705383,234.706467 -135.375005,312.812515c23.33038,78.106049 83.124997,124.687469 83.124997,124.687469c0.811172,0.629944 1.979431,0.483032 2.609383,-0.328125c0.629936,-0.811157 0.48304,-1.979431 -0.328133,-2.609375c0,0 -58.894341,-45.981873 -81.843747,-122.812469c-22.949405,-76.830627 -10.265095,-184.493927 134.250005,-308.937515c0.629486,-0.51062 0.853348,-1.37149 0.552322,-2.124054c-0.301025,-0.752563 -1.056839,-1.221588 -1.864822,-1.157196l0,0z"/>
     <path fill="#ffffff" fill-rule="evenodd" stroke="#000000" stroke-width="0.8pt" marker-start="none" id="path5197" d="m106.899551,599.327393l-29.292137,-4.071289l18.20002,-23.343506l11.092117,27.414795z"/>
    </g>
    <g id="g5183">
     <path fill="#ffffff" fill-rule="evenodd" stroke-width="3.7" stroke-linecap="round" stroke-miterlimit="3.7" id="path4764" d="m147.248001,176.386429c-0.347733,0.053711 -0.672958,0.205475 -0.9375,0.4375c-85.733326,70.603912 -102.946178,117.416702 -98.000004,147.093765c4.946175,29.677063 32.031246,41.15625 32.031246,41.15625c0.614403,0.290039 1.338341,0.219971 1.885742,-0.182465c0.547394,-0.402435 0.830185,-1.07254 0.736618,-1.745483c-0.093567,-0.672943 -0.548431,-1.240448 -1.18486,-1.478302c0,0 -25.200886,-10.674103 -29.812496,-38.34375c-4.611607,-27.669647 11.386826,-73.408646 96.687504,-143.656265c0.65329,-0.51889 0.878494,-1.410797 0.549866,-2.177612c-0.328644,-0.766815 -1.129822,-1.218872 -1.956116,-1.103638z"/>
     <path fill="#ffffff" fill-rule="evenodd" stroke="#000000" stroke-width="0.8pt" marker-start="none" id="path5189" d="m96.799026,370.02063l-29.347122,3.653961l11.53334,-27.26062l17.813782,23.606659z"/>
    </g>
   </g>
  </g>
  <text font-style="normal" font-weight="normal" font-size="40px" font-family="sans-serif" text-anchor="end" fill="#ffffff" id="text9601" y="292" x="143.91016" xml:space="preserve">
   <tspan font-size="46.666667px" id="tspan9633" y="292" x="143.91016">⎧</tspan>
   <tspan font-size="46.666667px" id="tspan9677" y="340" x="143.91016">⎪</tspan>
   <tspan font-size="46.666667px" id="tspan9679" y="388" x="143.91016">⎨</tspan>
   <tspan font-size="46.666667px" id="tspan9681" y="436" x="143.91016">⎪</tspan>
   <tspan font-size="46.666667px" id="tspan9683" y="484" x="143.91016">⎩</tspan>
  </text>
  <text font-style="normal" font-weight="normal" font-size="40px" font-family="sans-serif" text-anchor="end" fill="#ffffff" id="text9601-2" y="559.87891" x="144.75" xml:space="preserve">
   <tspan font-size="46.666668px" id="tspan9677-4" y="559.87891" x="144.75">⎧</tspan>
   <tspan font-size="46.666668px" id="tspan9681-9" y="606.54559" x="144.75">⎨</tspan>
   <tspan font-size="46.666668px" id="tspan9683-5" y="653.21222" x="144.75">⎩</tspan>
  </text>
 </g>
</svg>